<mxfile host="app.diagrams.net" modified="2023-04-01T15:45:13.935Z" agent="5.0 (Windows NT 10.0; Win64; x64) AppleWebKit/537.36 (KHTML, like Gecko) Chrome/111.0.0.0 Safari/537.36" etag="S6gUoKCa3SPq0ilE-8Ev" version="21.0.2" type="github">
  <diagram id="C5RBs43oDa-KdzZeNtuy" name="Page-1">
    <mxGraphModel dx="2261" dy="756" grid="1" gridSize="10" guides="1" tooltips="1" connect="1" arrows="1" fold="1" page="1" pageScale="1" pageWidth="827" pageHeight="1169" background="#333333" math="0" shadow="0">
      <root>
        <mxCell id="WIyWlLk6GJQsqaUBKTNV-0" />
        <mxCell id="WIyWlLk6GJQsqaUBKTNV-1" parent="WIyWlLk6GJQsqaUBKTNV-0" />
        <mxCell id="6sigm9hNixch7Fj4dPni-42" style="edgeStyle=orthogonalEdgeStyle;rounded=0;orthogonalLoop=1;jettySize=auto;html=1;exitX=0;exitY=1;exitDx=0;exitDy=0;entryX=0.079;entryY=1.055;entryDx=0;entryDy=0;entryPerimeter=0;strokeColor=#FFFFFF;strokeWidth=2;" edge="1" parent="WIyWlLk6GJQsqaUBKTNV-1" source="6sigm9hNixch7Fj4dPni-3" target="6sigm9hNixch7Fj4dPni-22">
          <mxGeometry relative="1" as="geometry">
            <Array as="points">
              <mxPoint x="415" y="310" />
              <mxPoint x="415" y="190" />
              <mxPoint x="-226" y="190" />
            </Array>
          </mxGeometry>
        </mxCell>
        <mxCell id="6sigm9hNixch7Fj4dPni-3" value="DB" style="swimlane;whiteSpace=wrap;html=1;strokeColor=#FFFFFF;strokeWidth=4;" vertex="1" parent="WIyWlLk6GJQsqaUBKTNV-1">
          <mxGeometry x="520" y="40" width="280" height="270" as="geometry" />
        </mxCell>
        <mxCell id="6sigm9hNixch7Fj4dPni-4" value="Item" style="swimlane;whiteSpace=wrap;html=1;strokeColor=#FFFFFF;strokeWidth=4;" vertex="1" parent="6sigm9hNixch7Fj4dPni-3">
          <mxGeometry x="20" y="40" width="110" height="90" as="geometry" />
        </mxCell>
        <mxCell id="6sigm9hNixch7Fj4dPni-20" value="&lt;font color=&quot;#ffffff&quot;&gt;&lt;b&gt;CRUD&lt;/b&gt;&lt;/font&gt;" style="rounded=1;whiteSpace=wrap;html=1;fillColor=#333333;strokeColor=#FFFFFF;strokeWidth=3;" vertex="1" parent="6sigm9hNixch7Fj4dPni-3">
          <mxGeometry x="-2" y="210" width="120" height="60" as="geometry" />
        </mxCell>
        <mxCell id="6sigm9hNixch7Fj4dPni-6" value="Item" style="swimlane;whiteSpace=wrap;html=1;strokeColor=#FFFFFF;strokeWidth=4;" vertex="1" parent="WIyWlLk6GJQsqaUBKTNV-1">
          <mxGeometry x="550" y="90" width="110" height="90" as="geometry" />
        </mxCell>
        <mxCell id="6sigm9hNixch7Fj4dPni-7" value="Item" style="swimlane;whiteSpace=wrap;html=1;strokeColor=#FFFFFF;strokeWidth=4;" vertex="1" parent="WIyWlLk6GJQsqaUBKTNV-1">
          <mxGeometry x="560" y="100" width="110" height="90" as="geometry" />
        </mxCell>
        <mxCell id="6sigm9hNixch7Fj4dPni-8" value="Item" style="swimlane;whiteSpace=wrap;html=1;strokeColor=#FFFFFF;strokeWidth=4;" vertex="1" parent="WIyWlLk6GJQsqaUBKTNV-1">
          <mxGeometry x="570" y="110" width="110" height="90" as="geometry" />
        </mxCell>
        <mxCell id="6sigm9hNixch7Fj4dPni-9" value="Item" style="swimlane;whiteSpace=wrap;html=1;strokeColor=#FFFFFF;strokeWidth=4;" vertex="1" parent="WIyWlLk6GJQsqaUBKTNV-1">
          <mxGeometry x="580" y="120" width="110" height="90" as="geometry" />
        </mxCell>
        <mxCell id="6sigm9hNixch7Fj4dPni-10" value="Item" style="swimlane;whiteSpace=wrap;html=1;strokeColor=#FFFFFF;strokeWidth=4;" vertex="1" parent="WIyWlLk6GJQsqaUBKTNV-1">
          <mxGeometry x="590" y="130" width="110" height="90" as="geometry" />
        </mxCell>
        <mxCell id="6sigm9hNixch7Fj4dPni-12" value="Item" style="swimlane;whiteSpace=wrap;html=1;strokeColor=#FFFFFF;strokeWidth=4;" vertex="1" parent="WIyWlLk6GJQsqaUBKTNV-1">
          <mxGeometry x="598" y="139" width="110" height="90" as="geometry" />
        </mxCell>
        <mxCell id="6sigm9hNixch7Fj4dPni-13" value="Item" style="swimlane;whiteSpace=wrap;html=1;strokeColor=#FFFFFF;strokeWidth=4;" vertex="1" parent="WIyWlLk6GJQsqaUBKTNV-1">
          <mxGeometry x="608" y="149" width="110" height="90" as="geometry" />
        </mxCell>
        <mxCell id="6sigm9hNixch7Fj4dPni-14" value="Item" style="swimlane;whiteSpace=wrap;html=1;strokeColor=#FFFFFF;strokeWidth=4;" vertex="1" parent="WIyWlLk6GJQsqaUBKTNV-1">
          <mxGeometry x="618" y="159" width="110" height="90" as="geometry" />
        </mxCell>
        <mxCell id="6sigm9hNixch7Fj4dPni-15" value="Item" style="swimlane;whiteSpace=wrap;html=1;strokeColor=#FFFFFF;strokeWidth=4;" vertex="1" parent="WIyWlLk6GJQsqaUBKTNV-1">
          <mxGeometry x="628" y="169" width="110" height="90" as="geometry" />
        </mxCell>
        <mxCell id="6sigm9hNixch7Fj4dPni-16" value="Item" style="swimlane;whiteSpace=wrap;html=1;strokeColor=#FFFFFF;strokeWidth=4;" vertex="1" parent="WIyWlLk6GJQsqaUBKTNV-1">
          <mxGeometry x="638" y="179" width="110" height="90" as="geometry" />
        </mxCell>
        <mxCell id="6sigm9hNixch7Fj4dPni-21" value="REACT-APP" style="swimlane;whiteSpace=wrap;html=1;strokeColor=#FFFFFF;strokeWidth=4;" vertex="1" parent="WIyWlLk6GJQsqaUBKTNV-1">
          <mxGeometry x="-280" y="40" width="600" height="440" as="geometry" />
        </mxCell>
        <mxCell id="6sigm9hNixch7Fj4dPni-22" value="" style="swimlane;startSize=0;strokeColor=#FFFFFF;strokeWidth=4;" vertex="1" parent="6sigm9hNixch7Fj4dPni-21">
          <mxGeometry x="8" y="35" width="582" height="55" as="geometry" />
        </mxCell>
        <mxCell id="6sigm9hNixch7Fj4dPni-29" value="&lt;font size=&quot;1&quot; color=&quot;#ffffff&quot;&gt;&lt;b style=&quot;font-size: 14px;&quot;&gt;Delete Item&lt;/b&gt;&lt;/font&gt;" style="text;html=1;align=center;verticalAlign=middle;resizable=0;points=[];autosize=1;strokeColor=none;fillColor=none;" vertex="1" parent="6sigm9hNixch7Fj4dPni-22">
          <mxGeometry x="212" y="11.5" width="100" height="30" as="geometry" />
        </mxCell>
        <mxCell id="6sigm9hNixch7Fj4dPni-33" value="" style="swimlane;startSize=0;strokeColor=#FFFFFF;strokeWidth=2;" vertex="1" parent="6sigm9hNixch7Fj4dPni-22">
          <mxGeometry x="330" y="11.5" width="210" height="31" as="geometry" />
        </mxCell>
        <mxCell id="6sigm9hNixch7Fj4dPni-30" value="&lt;font size=&quot;1&quot; color=&quot;#ffffff&quot;&gt;&lt;b style=&quot;font-size: 14px;&quot;&gt;Find &amp;amp; Take Me To The Item&lt;/b&gt;&lt;/font&gt;" style="text;html=1;align=center;verticalAlign=middle;resizable=0;points=[];autosize=1;strokeColor=none;fillColor=none;" vertex="1" parent="6sigm9hNixch7Fj4dPni-33">
          <mxGeometry x="2" y="1" width="210" height="30" as="geometry" />
        </mxCell>
        <mxCell id="6sigm9hNixch7Fj4dPni-35" value="" style="swimlane;startSize=0;strokeColor=#FFFFFF;strokeWidth=2;" vertex="1" parent="6sigm9hNixch7Fj4dPni-22">
          <mxGeometry x="217" y="11.5" width="90" height="30" as="geometry" />
        </mxCell>
        <mxCell id="6sigm9hNixch7Fj4dPni-37" value="" style="swimlane;startSize=0;strokeColor=#FFFFFF;strokeWidth=2;" vertex="1" parent="6sigm9hNixch7Fj4dPni-22">
          <mxGeometry x="12" y="11.5" width="78" height="31" as="geometry" />
        </mxCell>
        <mxCell id="6sigm9hNixch7Fj4dPni-27" value="&lt;font size=&quot;1&quot; color=&quot;#ffffff&quot;&gt;&lt;b style=&quot;font-size: 14px;&quot;&gt;Add Item&lt;/b&gt;&lt;/font&gt;" style="text;html=1;align=center;verticalAlign=middle;resizable=0;points=[];autosize=1;strokeColor=none;fillColor=none;" vertex="1" parent="6sigm9hNixch7Fj4dPni-37">
          <mxGeometry y="1" width="80" height="30" as="geometry" />
        </mxCell>
        <mxCell id="6sigm9hNixch7Fj4dPni-36" value="" style="swimlane;startSize=0;strokeColor=#FFFFFF;strokeWidth=2;" vertex="1" parent="6sigm9hNixch7Fj4dPni-22">
          <mxGeometry x="112" y="12" width="80" height="30" as="geometry" />
        </mxCell>
        <mxCell id="6sigm9hNixch7Fj4dPni-28" value="&lt;font size=&quot;1&quot; color=&quot;#ffffff&quot;&gt;&lt;b style=&quot;font-size: 14px;&quot;&gt;Edit Item&lt;/b&gt;&lt;/font&gt;" style="text;html=1;align=center;verticalAlign=middle;resizable=0;points=[];autosize=1;strokeColor=none;fillColor=none;" vertex="1" parent="6sigm9hNixch7Fj4dPni-36">
          <mxGeometry width="80" height="30" as="geometry" />
        </mxCell>
        <mxCell id="6sigm9hNixch7Fj4dPni-23" value="" style="swimlane;startSize=0;strokeColor=#FFFFFF;strokeWidth=4;" vertex="1" parent="6sigm9hNixch7Fj4dPni-21">
          <mxGeometry x="10" y="370" width="580" height="55" as="geometry" />
        </mxCell>
        <mxCell id="6sigm9hNixch7Fj4dPni-31" value="&lt;font style=&quot;font-size: 27px;&quot; color=&quot;#ffffff&quot;&gt;welcome to the Lost &amp;amp; Found Website&lt;/font&gt;" style="rounded=1;whiteSpace=wrap;html=1;fillColor=#333333;strokeColor=#FFFFFF;strokeWidth=5;" vertex="1" parent="6sigm9hNixch7Fj4dPni-21">
          <mxGeometry x="40" y="160" width="520" height="200" as="geometry" />
        </mxCell>
        <mxCell id="6sigm9hNixch7Fj4dPni-24" value="&lt;font size=&quot;1&quot; color=&quot;#ffffff&quot;&gt;&lt;b style=&quot;font-size: 16px;&quot;&gt;All Rights Reserved To Benny Solomon&lt;/b&gt;&lt;/font&gt;" style="text;html=1;align=center;verticalAlign=middle;resizable=0;points=[];autosize=1;strokeColor=none;fillColor=none;" vertex="1" parent="WIyWlLk6GJQsqaUBKTNV-1">
          <mxGeometry x="-147" y="423" width="320" height="30" as="geometry" />
        </mxCell>
        <mxCell id="6sigm9hNixch7Fj4dPni-39" style="edgeStyle=orthogonalEdgeStyle;rounded=0;orthogonalLoop=1;jettySize=auto;html=1;exitX=0;exitY=0;exitDx=0;exitDy=0;entryX=0.481;entryY=1.05;entryDx=0;entryDy=0;entryPerimeter=0;strokeColor=#FFFFFF;strokeWidth=2;" edge="1" parent="WIyWlLk6GJQsqaUBKTNV-1" source="6sigm9hNixch7Fj4dPni-20">
          <mxGeometry relative="1" as="geometry">
            <mxPoint x="518" y="277" as="sourcePoint" />
            <mxPoint x="161.01000000000022" y="131" as="targetPoint" />
            <Array as="points">
              <mxPoint x="450" y="250" />
              <mxPoint x="450" y="162" />
              <mxPoint x="161" y="162" />
            </Array>
          </mxGeometry>
        </mxCell>
        <mxCell id="6sigm9hNixch7Fj4dPni-40" style="edgeStyle=orthogonalEdgeStyle;rounded=0;orthogonalLoop=1;jettySize=auto;html=1;exitX=0;exitY=0.25;exitDx=0;exitDy=0;entryX=0.442;entryY=1.036;entryDx=0;entryDy=0;entryPerimeter=0;strokeColor=#FFFFFF;strokeWidth=2;" edge="1" parent="WIyWlLk6GJQsqaUBKTNV-1" source="6sigm9hNixch7Fj4dPni-20" target="6sigm9hNixch7Fj4dPni-22">
          <mxGeometry relative="1" as="geometry">
            <Array as="points">
              <mxPoint x="518" y="270" />
              <mxPoint x="440" y="270" />
              <mxPoint x="440" y="170" />
              <mxPoint x="-15" y="170" />
            </Array>
          </mxGeometry>
        </mxCell>
        <mxCell id="6sigm9hNixch7Fj4dPni-41" style="edgeStyle=orthogonalEdgeStyle;rounded=0;orthogonalLoop=1;jettySize=auto;html=1;exitX=0;exitY=0.75;exitDx=0;exitDy=0;entryX=0.263;entryY=1.091;entryDx=0;entryDy=0;entryPerimeter=0;strokeColor=#FFFFFF;strokeWidth=2;" edge="1" parent="WIyWlLk6GJQsqaUBKTNV-1" source="6sigm9hNixch7Fj4dPni-20" target="6sigm9hNixch7Fj4dPni-22">
          <mxGeometry relative="1" as="geometry">
            <Array as="points">
              <mxPoint x="518" y="290" />
              <mxPoint x="430" y="290" />
              <mxPoint x="430" y="180" />
              <mxPoint x="-119" y="180" />
            </Array>
          </mxGeometry>
        </mxCell>
        <mxCell id="6sigm9hNixch7Fj4dPni-43" value="&lt;b&gt;&lt;font color=&quot;#ffffff&quot;&gt;GET&lt;/font&gt;&lt;/b&gt;" style="text;html=1;align=center;verticalAlign=middle;resizable=0;points=[];autosize=1;strokeColor=none;fillColor=none;" vertex="1" parent="WIyWlLk6GJQsqaUBKTNV-1">
          <mxGeometry x="465" y="225" width="50" height="30" as="geometry" />
        </mxCell>
        <mxCell id="6sigm9hNixch7Fj4dPni-44" value="&lt;font color=&quot;#ffffff&quot;&gt;&lt;b&gt;DELETE&lt;/b&gt;&lt;/font&gt;" style="text;html=1;align=center;verticalAlign=middle;resizable=0;points=[];autosize=1;strokeColor=none;fillColor=none;" vertex="1" parent="WIyWlLk6GJQsqaUBKTNV-1">
          <mxGeometry x="445" y="245" width="70" height="30" as="geometry" />
        </mxCell>
        <mxCell id="6sigm9hNixch7Fj4dPni-45" value="&lt;b&gt;&lt;font color=&quot;#ffffff&quot;&gt;PUT&lt;/font&gt;&lt;/b&gt;" style="text;html=1;align=center;verticalAlign=middle;resizable=0;points=[];autosize=1;strokeColor=none;fillColor=none;" vertex="1" parent="WIyWlLk6GJQsqaUBKTNV-1">
          <mxGeometry x="466" y="265" width="50" height="30" as="geometry" />
        </mxCell>
        <mxCell id="6sigm9hNixch7Fj4dPni-46" value="&lt;b&gt;&lt;font color=&quot;#ffffff&quot;&gt;POST&lt;/font&gt;&lt;/b&gt;" style="text;html=1;align=center;verticalAlign=middle;resizable=0;points=[];autosize=1;strokeColor=none;fillColor=none;" vertex="1" parent="WIyWlLk6GJQsqaUBKTNV-1">
          <mxGeometry x="457" y="285" width="60" height="30" as="geometry" />
        </mxCell>
        <mxCell id="6sigm9hNixch7Fj4dPni-47" value="PUT / DELETE /&amp;nbsp; =&amp;gt; /items/:id&lt;br&gt;GET / POST / =&amp;gt; /items" style="rounded=1;whiteSpace=wrap;html=1;" vertex="1" parent="WIyWlLk6GJQsqaUBKTNV-1">
          <mxGeometry x="370" y="398" width="440" height="80" as="geometry" />
        </mxCell>
      </root>
    </mxGraphModel>
  </diagram>
</mxfile>
